<svg data-v-423bf9ae="" xmlns="http://www.w3.org/2000/svg" viewBox="0 0 323.6756855732686 60" class="font"><!----><!----><!----><g data-v-423bf9ae="" id="1db1f6de-8ca9-4fe7-8e64-a6d0571292b5" fill="white" transform="matrix(6.486486486486487,0,0,6.486486486486487,3.372967758694216,-44.49729864017384)"><path d="M4.93 8.23L4.93 8.23Q4.94 8.16 4.95 8.11Q4.96 8.05 4.96 7.98L4.96 7.98Q4.96 7.83 4.89 7.71Q4.82 7.60 4.66 7.46L4.66 7.46Q4.45 7.28 4.24 7.15Q4.02 7.01 3.82 6.94L3.82 6.94L3.82 6.96Q3.74 6.93 3.67 6.91Q3.60 6.89 3.56 6.89L3.56 6.89Q3.40 6.89 3.31 6.99Q3.22 7.08 3.18 7.34L3.18 7.34Q3.07 7.91 2.95 8.63Q2.84 9.35 2.73 10.14L2.73 10.14Q2.70 10.33 2.67 10.53Q2.63 10.72 2.60 10.92L2.60 10.92Q2.41 10.93 2.20 10.96Q1.99 10.99 1.78 11.02L1.78 11.02Q1.81 10.86 1.83 10.73Q1.86 10.60 1.89 10.44L1.89 10.44Q2.00 9.83 2.09 9.31Q2.17 8.79 2.25 8.40L2.25 8.40Q2.27 8.33 2.27 8.27Q2.28 8.22 2.28 8.13L2.28 8.13Q2.28 7.98 2.21 7.87Q2.14 7.76 1.97 7.60L1.97 7.60L1.99 7.62Q1.79 7.45 1.55 7.31Q1.32 7.17 1.09 7.08L1.09 7.08Q0.95 7.01 0.83 7.01L0.83 7.01Q0.69 7.01 0.59 7.11Q0.50 7.21 0.45 7.45L0.45 7.45Q0.38 7.94 0.31 8.54Q0.24 9.14 0.17 9.77L0.17 9.77Q0.10 10.42 0.02 11.07Q-0.06 11.73-0.14 12.38Q-0.22 13.02-0.32 13.61Q-0.41 14.20-0.49 14.69L-0.49 14.69Q-0.50 14.76-0.51 14.81Q-0.52 14.87-0.52 14.94L-0.52 14.94Q-0.52 15.16-0.43 15.30Q-0.35 15.44-0.18 15.55L-0.18 15.55Q-0.04 15.67 0.13 15.74Q0.29 15.82 0.45 15.89L0.45 15.89Q0.48 15.90 0.50 15.91Q0.52 15.92 0.55 15.93L0.55 15.93Q0.62 15.96 0.68 15.97Q0.74 15.99 0.78 15.99L0.78 15.99Q0.94 15.99 1.01 15.89Q1.08 15.79 1.11 15.58L1.11 15.58Q1.13 15.43 1.15 15.27Q1.16 15.11 1.19 14.94L1.19 14.94Q1.25 14.53 1.30 14.06Q1.36 13.59 1.44 13.10L1.44 13.10Q1.62 13.06 1.79 13.03Q1.96 12.99 2.14 12.95L2.14 12.95Q2.20 12.94 2.34 12.91L2.34 12.91Q2.27 13.45 2.23 13.90Q2.18 14.35 2.16 14.71L2.16 14.71Q2.14 14.78 2.14 14.92L2.14 14.92Q2.14 15.29 2.34 15.47Q2.53 15.65 2.83 15.79L2.83 15.79Q2.86 15.81 2.86 15.81L2.86 15.81Q2.87 15.81 2.90 15.82L2.90 15.82Q3.05 15.89 3.18 15.94Q3.30 15.99 3.42 15.99L3.42 15.99Q3.72 15.99 3.74 15.60L3.74 15.60Q3.86 14.69 4.01 13.68Q4.16 12.67 4.32 11.69Q4.48 10.71 4.64 9.81Q4.80 8.92 4.93 8.23ZM4.94 14.53L4.94 14.53Q5.05 14.90 5.22 15.12Q5.39 15.34 5.57 15.50L5.57 15.50Q6.03 15.90 6.76 15.96L6.76 15.96Q6.82 15.96 6.87 15.97Q6.93 15.97 6.99 15.97L6.99 15.97Q7.27 15.97 7.50 15.89Q7.74 15.81 7.98 15.62L7.98 15.62Q8.36 15.29 8.64 14.62Q8.92 13.94 9.14 13.00Q9.37 12.05 9.54 10.86Q9.72 9.67 9.87 8.30L9.87 8.30L9.87 8.32Q9.88 8.25 9.88 8.19L9.88 8.19Q9.88 8.13 9.88 8.08L9.88 8.08Q9.88 7.92 9.82 7.81Q9.76 7.70 9.59 7.55L9.59 7.55Q9.34 7.35 9.04 7.17Q8.75 6.99 8.51 6.99L8.51 6.99Q8.12 6.99 8.11 7.45L8.11 7.45Q8.04 7.98 7.95 8.69Q7.87 9.41 7.76 10.16Q7.64 10.92 7.51 11.66Q7.38 12.40 7.24 12.98Q7.10 13.57 6.94 13.92Q6.79 14.28 6.62 14.28L6.62 14.28L6.61 14.28Q6.51 14.24 6.48 14.03Q6.44 13.82 6.44 13.50L6.44 13.50Q6.44 13.03 6.52 12.43Q6.59 11.82 6.71 11.16Q6.83 10.50 6.97 9.86Q7.10 9.21 7.22 8.69L7.22 8.69L7.21 8.71Q7.24 8.61 7.25 8.55Q7.25 8.48 7.25 8.41L7.25 8.41Q7.25 7.98 6.94 7.67L6.94 7.67Q6.76 7.50 6.57 7.37Q6.38 7.24 6.19 7.17L6.19 7.17Q6.05 7.10 5.92 7.10L5.92 7.10Q5.77 7.10 5.67 7.19Q5.57 7.28 5.52 7.52L5.52 7.52Q5.38 8.13 5.23 8.82Q5.08 9.51 4.97 10.21Q4.86 10.91 4.78 11.59Q4.70 12.28 4.70 12.89L4.70 12.89Q4.70 13.38 4.76 13.80Q4.82 14.21 4.94 14.53ZM12.63 8.43L12.63 8.43Q12.59 8.05 12.48 7.85Q12.38 7.64 12.14 7.52L12.14 7.52L12.14 7.53Q11.93 7.38 11.72 7.29Q11.51 7.21 11.30 7.13L11.30 7.13Q11.27 7.11 11.23 7.10Q11.20 7.08 11.17 7.07L11.17 7.07L11.19 7.07Q11.07 7.01 10.95 7.01L10.95 7.01Q10.63 7.01 10.50 7.49L10.50 7.49Q10.40 7.95 10.30 8.58Q10.21 9.21 10.11 9.91Q10.01 10.61 9.92 11.33Q9.83 12.04 9.75 12.68Q9.67 13.31 9.62 13.83Q9.56 14.35 9.55 14.64L9.55 14.64L9.55 14.63Q9.53 14.70 9.53 14.76L9.53 14.76Q9.53 14.81 9.53 14.87L9.53 14.87Q9.53 15.11 9.60 15.24Q9.67 15.37 9.83 15.50L9.83 15.50Q9.97 15.64 10.14 15.72Q10.32 15.81 10.51 15.88L10.51 15.88Q10.56 15.89 10.55 15.88Q10.54 15.88 10.57 15.89L10.57 15.89Q10.72 15.95 10.81 15.95L10.81 15.95Q10.98 15.95 11.03 15.86Q11.09 15.78 11.12 15.58L11.12 15.58Q11.17 15.12 11.26 14.50Q11.34 13.89 11.44 13.19L11.44 13.19Q11.48 12.88 11.52 12.56Q11.56 12.24 11.62 11.91L11.62 11.91Q11.77 12.75 11.95 13.52Q12.12 14.28 12.28 14.81L12.28 14.81L12.28 14.80Q12.35 15.08 12.49 15.27Q12.63 15.47 12.81 15.57L12.81 15.57Q13.01 15.67 13.18 15.74Q13.36 15.82 13.54 15.88L13.54 15.88L13.52 15.86Q13.59 15.89 13.64 15.90Q13.69 15.90 13.75 15.90L13.75 15.90Q14.13 15.90 14.15 15.46L14.15 15.46Q14.18 15.30 14.20 15.14Q14.21 14.98 14.24 14.81L14.24 14.81Q14.34 14.04 14.46 13.17Q14.59 12.29 14.71 11.42Q14.84 10.54 14.96 9.74Q15.08 8.95 15.19 8.33L15.19 8.33Q15.20 8.26 15.21 8.19Q15.22 8.12 15.22 8.05L15.22 8.05Q15.22 7.88 15.16 7.76Q15.09 7.63 14.92 7.48L14.92 7.48Q14.80 7.36 14.70 7.29Q14.60 7.22 14.53 7.18Q14.45 7.14 14.36 7.11Q14.28 7.08 14.17 7.06L14.17 7.06L14.18 7.07Q14.07 7.01 13.94 7.01L13.94 7.01Q13.62 7.01 13.54 7.46L13.54 7.46Q13.40 8.22 13.25 9.13Q13.10 10.04 12.98 11.05L12.98 11.05Q12.87 10.25 12.77 9.53Q12.67 8.82 12.63 8.43ZM20.16 8.89L20.16 8.89Q20.30 8.55 20.30 8.30L20.30 8.30Q20.30 8.13 20.22 7.92L20.22 7.92L20.22 7.94Q20.02 7.41 19.74 7.08L19.74 7.08L19.75 7.08Q19.59 6.89 19.39 6.89L19.39 6.89Q19.19 6.89 19.07 7.15L19.07 7.15L19.07 7.14Q18.94 7.36 18.75 7.67Q18.55 7.98 18.33 8.33Q18.10 8.68 17.85 9.06Q17.60 9.44 17.35 9.81L17.35 9.81Q17.30 9.88 17.26 9.93Q17.22 9.98 17.19 10.04L17.19 10.04Q17.19 10.02 17.20 10.02Q17.21 10.01 17.21 9.98L17.21 9.98Q17.29 9.48 17.37 9.04Q17.44 8.61 17.53 8.26L17.53 8.26Q17.54 8.19 17.55 8.14Q17.56 8.09 17.56 8.02L17.56 8.02Q17.56 7.87 17.49 7.76Q17.42 7.66 17.26 7.50L17.26 7.50Q17.07 7.31 16.81 7.17Q16.56 7.03 16.35 6.96L16.35 6.96L16.37 6.97Q16.30 6.94 16.23 6.92Q16.17 6.90 16.11 6.90L16.11 6.90Q15.82 6.90 15.71 7.35L15.71 7.35Q15.62 7.77 15.53 8.37Q15.44 8.96 15.34 9.65Q15.25 10.35 15.15 11.07Q15.05 11.80 14.97 12.49Q14.88 13.17 14.83 13.76Q14.77 14.34 14.74 14.71L14.74 14.71L14.74 14.85Q14.74 15.25 14.91 15.44Q15.08 15.64 15.41 15.79L15.41 15.79Q15.46 15.81 15.53 15.83Q15.61 15.86 15.61 15.86L15.61 15.86Q15.86 16.00 16.04 16.00L16.04 16.00Q16.34 16.00 16.35 15.60L16.35 15.60Q16.38 15.40 16.41 15.20Q16.44 14.99 16.46 14.77L16.46 14.77Q16.52 14.25 16.63 13.64L16.63 13.64Q16.87 14.13 17.12 14.55Q17.36 14.98 17.51 15.23L17.51 15.23Q17.54 15.29 17.57 15.34Q17.60 15.39 17.63 15.41L17.63 15.41Q17.79 15.67 17.95 15.76Q18.10 15.86 18.28 15.86L18.28 15.86Q18.40 15.86 18.58 15.79L18.58 15.79L18.56 15.81Q18.69 15.78 18.84 15.72Q19.00 15.67 19.11 15.55L19.11 15.55Q19.22 15.47 19.29 15.39Q19.35 15.30 19.35 15.19L19.35 15.19Q19.35 15.08 19.21 14.84L19.21 14.84L19.22 14.84Q19.10 14.64 18.94 14.36Q18.79 14.07 18.62 13.74Q18.45 13.41 18.28 13.06Q18.12 12.71 17.98 12.39L17.98 12.39Q18.28 11.97 18.61 11.51Q18.93 11.05 19.22 10.58Q19.52 10.12 19.76 9.69Q20.01 9.25 20.16 8.89ZM24.98 8.47L24.96 8.47Q25.06 8.19 25.06 8.04L25.06 8.04Q25.06 7.78 24.89 7.56L24.89 7.56Q24.81 7.46 24.69 7.34Q24.57 7.21 24.44 7.11Q24.32 7 24.19 6.93Q24.07 6.86 23.97 6.86L23.97 6.86Q23.84 6.86 23.75 6.93Q23.66 7 23.62 7.20L23.62 7.20Q23.55 7.34 23.50 7.47Q23.45 7.60 23.39 7.74L23.39 7.74Q23.16 8.33 22.92 8.90Q22.68 9.46 22.41 10.05L22.41 10.05Q22.26 9.38 22.13 8.83Q22.01 8.27 21.90 7.80L21.90 7.80Q21.77 7.43 21.66 7.25Q21.55 7.07 21.31 7L21.31 7Q21.11 6.93 20.90 6.93L20.90 6.93Q20.80 6.93 20.72 6.94Q20.64 6.94 20.57 6.96L20.57 6.96Q20.54 6.96 20.52 6.96Q20.50 6.97 20.48 6.97L20.48 6.97Q20.29 7 20.21 7.08Q20.13 7.15 20.13 7.32L20.13 7.32Q20.13 7.45 20.17 7.59L20.17 7.59L20.17 7.57Q20.33 8.39 20.56 9.41Q20.79 10.44 21.03 11.48L21.03 11.48Q21.08 11.72 21.13 11.96Q21.18 12.19 21.24 12.43L21.24 12.43Q21.17 12.91 21.13 13.35Q21.10 13.79 21.06 14.17L21.06 14.17Q21.03 14.34 21.02 14.49Q21.01 14.64 20.99 14.80L20.99 14.80L20.99 14.78Q20.97 14.85 20.97 14.91L20.97 14.91Q20.97 14.97 20.97 15.02L20.97 15.02Q20.97 15.23 21.04 15.37Q21.10 15.50 21.24 15.64L21.24 15.64Q21.45 15.78 21.66 15.88Q21.87 15.99 22.02 16.06L22.02 16.06Q22.09 16.09 22.16 16.10Q22.22 16.11 22.26 16.11L22.26 16.11Q22.41 16.11 22.48 16.02Q22.55 15.93 22.60 15.69L22.60 15.69Q22.67 15.09 22.76 14.46Q22.85 13.83 22.97 13.12L22.97 13.12Q23.28 12.47 23.60 11.79Q23.91 11.10 24.18 10.48Q24.46 9.86 24.67 9.33Q24.88 8.81 24.98 8.47L24.98 8.47ZM28.84 7.62L28.78 7.71L28.15 13.89Q28.14 13.99 28.14 14.08L28.14 14.08Q28.14 14.17 28.14 14.24L28.14 14.24Q28.14 14.56 28.22 14.73Q28.29 14.90 28.41 15.06L28.41 15.06L28.41 15.05Q28.43 15.11 28.46 15.13L28.46 15.13Q28.66 15.37 28.81 15.53Q28.97 15.68 29.19 15.85L29.19 15.85Q29.48 16.07 29.75 16.07L29.75 16.07Q29.93 16.07 30.13 15.96L30.13 15.96Q30.98 15.61 31.62 15.00Q32.26 14.39 32.67 13.65Q33.08 12.91 33.28 12.10Q33.49 11.28 33.49 10.51L33.49 10.51Q33.49 10.02 33.41 9.58Q33.33 9.13 33.17 8.74L33.17 8.74Q32.76 7.73 32.13 7.34Q31.50 6.94 30.81 6.94L30.81 6.94Q30.25 6.94 29.73 7.15Q29.20 7.35 28.84 7.62L28.84 7.62ZM30.67 9.06L30.67 9.06Q30.74 9.03 30.83 9.02Q30.91 9.00 30.98 9.00L30.98 9.00Q31.21 9.00 31.36 9.13Q31.51 9.25 31.58 9.45L31.58 9.45Q31.68 9.72 31.68 10.15L31.68 10.15L31.68 10.29Q31.67 10.67 31.56 11.14Q31.46 11.61 31.24 12.08Q31.02 12.56 30.69 13.01Q30.35 13.47 29.88 13.82L29.88 13.82Q30.07 12.56 30.25 11.38Q30.44 10.19 30.67 9.06ZM37.93 7.66L37.93 7.66Q37.67 7.39 37.32 7.22Q36.97 7.04 36.58 6.97L36.58 6.97Q36.54 6.96 36.48 6.96L36.48 6.96Q36.43 6.96 36.37 6.96L36.37 6.96Q36.09 6.96 35.81 7.08Q35.53 7.20 35.31 7.43L35.31 7.43Q34.92 7.87 34.61 8.46Q34.31 9.06 34.10 9.73Q33.89 10.40 33.79 11.12Q33.68 11.83 33.68 12.52L33.68 12.52Q33.68 13.05 33.75 13.54Q33.81 14.03 33.96 14.46L33.96 14.46L33.95 14.46Q34.06 14.78 34.26 15.05Q34.45 15.32 34.68 15.50L34.68 15.50Q34.94 15.69 35.25 15.80Q35.56 15.90 35.87 15.95L35.87 15.95Q35.94 15.96 36.01 15.97Q36.09 15.97 36.18 15.97L36.18 15.97Q36.85 15.97 37.37 15.37L37.37 15.37Q37.70 14.91 37.94 14.32Q38.18 13.73 38.33 13.07Q38.49 12.40 38.56 11.72Q38.64 11.03 38.64 10.37L38.64 10.37Q38.64 9.65 38.56 9.03L38.56 9.03Q38.49 8.60 38.35 8.27Q38.21 7.94 37.93 7.66ZM36.74 8.76L36.74 8.76Q36.83 8.79 36.88 9.14Q36.92 9.48 36.92 9.97L36.92 9.97Q36.92 10.42 36.88 10.91Q36.83 11.40 36.75 11.83L36.75 11.83Q36.67 12.35 36.55 12.80Q36.43 13.26 36.29 13.59Q36.16 13.93 36.03 14.12Q35.90 14.31 35.77 14.31L35.77 14.31Q35.74 14.31 35.73 14.29L35.73 14.29Q35.59 14.22 35.53 13.89Q35.48 13.57 35.48 13.09L35.48 13.09Q35.48 12.67 35.52 12.20Q35.57 11.73 35.67 11.28L35.67 11.28Q35.76 10.86 35.90 10.42Q36.04 9.97 36.18 9.60Q36.33 9.24 36.48 9.00Q36.62 8.76 36.74 8.76ZM42.22 15.54L42.22 15.54Q42.42 15.72 42.58 15.79Q42.74 15.86 42.90 15.86L42.90 15.86Q42.95 15.86 43.04 15.83Q43.12 15.81 43.22 15.78L43.22 15.78Q43.20 15.79 43.26 15.79L43.26 15.79Q43.37 15.76 43.48 15.71Q43.58 15.67 43.71 15.51L43.71 15.51Q43.85 15.34 43.85 15.19L43.85 15.19Q43.85 15.01 43.68 14.80L43.68 14.80Q43.48 14.59 43.28 14.32Q43.08 14.04 42.87 13.75Q42.67 13.45 42.48 13.16Q42.29 12.87 42.13 12.61L42.13 12.61Q42.88 12.11 43.42 11.53Q43.96 10.95 44.18 10.28L44.18 10.28L44.17 10.29Q44.23 10.16 44.24 10.03Q44.25 9.90 44.25 9.74L44.25 9.74Q44.25 9.45 44.20 9.18L44.20 9.18Q44.06 8.58 43.85 8.18Q43.64 7.78 43.40 7.45L43.40 7.45Q43.16 7.14 42.87 7.02Q42.59 6.90 42.27 6.90L42.27 6.90Q41.72 6.90 41.13 7.18Q40.54 7.46 40.00 7.78L40.00 7.78Q39.89 7.87 39.78 8.23Q39.68 8.58 39.58 9.11Q39.48 9.63 39.39 10.28Q39.30 10.93 39.21 11.60Q39.13 12.26 39.06 12.89Q38.99 13.52 38.95 14L38.95 14Q38.92 14.24 38.90 14.43Q38.88 14.62 38.86 14.74L38.86 14.74L38.86 14.92Q38.86 15.18 38.92 15.33Q38.98 15.48 39.12 15.61L39.12 15.61Q39.23 15.72 39.37 15.77Q39.52 15.82 39.68 15.88L39.68 15.88Q39.70 15.88 39.73 15.89Q39.76 15.90 39.79 15.92L39.79 15.92Q39.86 15.95 39.91 15.95Q39.96 15.96 40.00 15.96L40.00 15.96Q40.17 15.96 40.24 15.87Q40.31 15.78 40.33 15.58L40.33 15.58L40.42 15.04Q40.47 14.67 40.53 14.29Q40.59 13.90 40.66 13.50L40.66 13.50Q41.03 14.10 41.47 14.66Q41.90 15.22 42.22 15.54ZM42.29 8.93L42.29 8.93Q42.59 8.93 42.66 9.14L42.66 9.14Q42.64 9.11 42.64 9.17L42.64 9.17Q42.64 9.34 42.54 9.57Q42.43 9.80 42.24 10.07Q42.04 10.33 41.75 10.59Q41.47 10.85 41.10 11.06L41.10 11.06Q41.19 10.64 41.27 10.26L41.27 10.26Q41.33 9.98 41.38 9.71Q41.43 9.44 41.50 9.18L41.50 9.18Q41.72 9.04 41.92 8.99Q42.11 8.93 42.29 8.93ZM49.29 8.47L49.28 8.47Q49.38 8.19 49.38 8.04L49.38 8.04Q49.38 7.78 49.21 7.56L49.21 7.56Q49.13 7.46 49.01 7.34Q48.89 7.21 48.76 7.11Q48.64 7 48.51 6.93Q48.38 6.86 48.29 6.86L48.29 6.86Q48.16 6.86 48.07 6.93Q47.98 7 47.94 7.20L47.94 7.20Q47.87 7.34 47.82 7.47Q47.77 7.60 47.71 7.74L47.71 7.74Q47.47 8.33 47.24 8.90Q47.00 9.46 46.73 10.05L46.73 10.05Q46.58 9.38 46.45 8.83Q46.33 8.27 46.21 7.80L46.21 7.80Q46.09 7.43 45.98 7.25Q45.86 7.07 45.63 7L45.63 7Q45.43 6.93 45.22 6.93L45.22 6.93Q45.12 6.93 45.04 6.94Q44.95 6.94 44.88 6.96L44.88 6.96Q44.86 6.96 44.84 6.96Q44.81 6.97 44.80 6.97L44.80 6.97Q44.60 7 44.53 7.08Q44.45 7.15 44.45 7.32L44.45 7.32Q44.45 7.45 44.49 7.59L44.49 7.59L44.49 7.57Q44.65 8.39 44.88 9.41Q45.11 10.44 45.35 11.48L45.35 11.48Q45.40 11.72 45.45 11.96Q45.50 12.19 45.56 12.43L45.56 12.43Q45.49 12.91 45.45 13.35Q45.42 13.79 45.37 14.17L45.37 14.17Q45.35 14.34 45.34 14.49Q45.33 14.64 45.30 14.80L45.30 14.80L45.30 14.78Q45.29 14.85 45.29 14.91L45.29 14.91Q45.29 14.97 45.29 15.02L45.29 15.02Q45.29 15.23 45.35 15.37Q45.42 15.50 45.56 15.64L45.56 15.64Q45.77 15.78 45.98 15.88Q46.19 15.99 46.34 16.06L46.34 16.06Q46.41 16.09 46.47 16.10Q46.54 16.11 46.58 16.11L46.58 16.11Q46.73 16.11 46.80 16.02Q46.87 15.93 46.91 15.69L46.91 15.69Q46.98 15.09 47.07 14.46Q47.17 13.83 47.29 13.12L47.29 13.12Q47.60 12.47 47.91 11.79Q48.23 11.10 48.50 10.48Q48.78 9.86 48.99 9.33Q49.20 8.81 49.29 8.47L49.29 8.47Z"></path></g><!----><!----></svg>